<?xml version="1.0" encoding="utf-8"?>
<!-- Generator: Adobe Illustrator 16.0.0, SVG Export Plug-In . SVG Version: 6.00 Build 0)  -->
<!DOCTYPE svg PUBLIC "-//W3C//DTD SVG 1.1//EN" "http://www.w3.org/Graphics/SVG/1.1/DTD/svg11.dtd">
<svg version="1.1" id="Layer_1" xmlns="http://www.w3.org/2000/svg" xmlns:xlink="http://www.w3.org/1999/xlink" x="0px" y="0px"
	 width="170.333px" height="67.245px" viewBox="397 253.997 170.333 67.245" enable-background="new 397 253.997 170.333 67.245"
	 xml:space="preserve">
<path fill="#FFFFFF" stroke="#000000" stroke-miterlimit="10" d="M397.178,285"/>
<g id="Layer_2">
	<path fill="#F39B19" d="M567.333,285C564.184,253,537,254,537,254h-2.521c-23.375,0-28.979,21-28.979,21H400.208
		c-2.541,0-3.208,2-3.208,2v8h128.666c-14.521-18.83,8.209-21.687,10.459-21.812s26.256,2.349,11.625,21.812H567.333z"/>
</g>
<path fill="#F1C317" d="M547.751,285c14.631,19.463-9.375,21.938-11.625,21.813S511.146,303.83,525.667,285H397.001v8
	c0,0,1.708,3.5,4.249,3.5h-0.167v24.741h3.833v-10.908h5.167v10.908h5v-18.825h23.167v14.667h10.917v-6.833h5.083v10.991h5.833
	l0-24.733l0,0l45.927,0.008c0,0,5.094,19.484,28.469,19.484h2.521c0,0,27.184,1,30.333-31H547.751z"/>
</svg>
